<svg id="visual" viewBox="0 0 2000 1000" width="2000" height="1000" xmlns="http://www.w3.org/2000/svg" xmlns:xlink="http://www.w3.org/1999/xlink" version="1.1"><rect x="0" y="0" width="2000" height="1000" fill="#FFFFFF"></rect><g transform="translate(158.94961936013112 1026.7274320968443)"><path d="M678.6 -1281.1C815.6 -1096.4 818.7 -785.4 683.3 -550.9C547.9 -316.3 274 -158.2 358 48.5C442 255.2 883.9 510.3 1015.1 737.5C1146.3 964.7 966.6 1163.9 745.6 1295.7C524.7 1427.4 262.3 1491.7 42.9 1417.4C-176.5 1343 -353 1130.1 -581.6 1002.7C-810.3 875.4 -1091 833.7 -1243.1 680.9C-1395.2 528 -1418.6 264 -1311.2 62C-1203.8 -140 -965.6 -280 -843.8 -485.2C-722 -690.5 -716.5 -961 -595.2 -1154.8C-474 -1348.7 -237 -1465.8 16.9 -1495.1C270.8 -1524.4 541.7 -1465.9 678.6 -1281.1" fill="rgba(0, 102, 94, 0.13)"></path></g></svg>